<svg xmlns="http://www.w3.org/2000/svg" viewBox="0 0 172 172">
  <defs>
    <style>
      @import url("/vars.css");
    </style>
  </defs>
  <g fill="none" stroke-miterlimit="10" font-family="none" font-size="none" font-weight="none" style="mix-blend-mode:normal" text-anchor="none">
    <path d="M0 172V0h172v172z"/>
    <path style="fill:var(--logo-color);" d="M109.68359 11.825l-9.83457 4.07324.12598 10.96836c-1.57051 1.29336-3.01504 2.73789-4.3084 4.3084l-10.96836-.12598-4.07324 9.83457 7.76016 7.57539c-.11758 1.02461-.23516 2.04922-.23516 3.14101 0 1.0918.11758 2.11641.23516 3.14102L80.625 62.3164l4.07324 9.83457 10.96836-.12598c1.29336 1.57051 2.73789 3.01504 4.3084 4.3084l-.12598 10.96836 9.83457 4.07324 7.57539-7.76016c1.02461.11758 2.04922.23516 3.14101.23516 1.0918 0 2.11641-.11758 3.14102-.23516l7.57539 7.76016 9.83457-4.07324-.12598-10.96836c1.57051-1.29336 3.01504-2.73789 4.3084-4.3084l10.96836.12598 4.07324-9.83457-7.76016-7.57539c.11758-1.02461.23516-2.04922.23516-3.14102s-.11758-2.11641-.23516-3.14101l7.76016-7.57539-4.07324-9.83457-10.96836.12598c-1.29336-1.57051-2.73789-3.01504-4.3084-4.3084l.12598-10.96836-9.83457-4.07324-7.57539 7.76016c-1.02461-.11758-2.04922-.23516-3.14102-.23516s-2.11641.11758-3.14101.23516zm-1.0414 5.08945l6.9875 7.15547 1.075-.14278c1.24297-.16797 2.46914-.27715 3.69531-.27715 1.22617 0 2.45234.10918 3.69531.27715l1.075.14278 6.9875-7.15547 4.45957 1.84766-.12598 10.00254.86504.65508c1.96523 1.50332 3.72051 3.25859 5.22383 5.22383l.65508.86504 10.01094-.12598 1.84766 4.45957-7.16387 6.9875.14277 1.075c.16797 1.24297.27715 2.46914.27715 3.69531 0 1.22617-.10918 2.45234-.27715 3.69531l-.14277 1.075 7.16387 6.9875-1.84766 4.45957-10.01094-.12598-.65508.86504c-1.50332 1.96523-3.25859 3.72051-5.22383 5.22383l-.86504.65508.12598 10.01094-4.45957 1.84766-6.9875-7.16387-1.075.14277c-1.24297.16797-2.46914.27715-3.69531.27715-1.22617 0-2.45234-.10918-3.69531-.27715l-1.075-.14277-6.9875 7.16387-4.45957-1.84766.12598-10.01094-.86504-.65508c-1.96523-1.50332-3.72051-3.25859-5.22383-5.22383l-.65508-.86504-10.01094.12598-1.84766-4.45957 7.16387-6.9875-.14278-1.075c-.16797-1.24297-.27715-2.46914-.27715-3.69531 0-1.22617.10918-2.45234.27715-3.69531l.14278-1.075-7.16387-6.9875 1.84766-4.45957 10.01094.12598.65508-.86504c1.50332-1.96523 3.25859-3.72051 5.22383-5.22383l.86504-.65508-.12598-10.00254zM120.4 32.25c-1.18418 0-2.15.96582-2.15 2.15s.96582 2.15 2.15 2.15 2.15-.96582 2.15-2.15-.96582-2.15-2.15-2.15zm-8.65879 2.30957c-.35273 0-.70547.10078-1.01621.27715-.49551.28555-.85664.75586-1.00781 1.31016-.14277.5543-.06719 1.14219.21836 1.6377.59629 1.02461 1.90644 1.37734 2.93945.78105 1.02461-.59629 1.37734-1.90645.78105-2.93105-.38633-.68867-1.12539-1.1002-1.91484-1.075zm17.15801 0c-.73066.03359-1.39414.43672-1.76367 1.075-.59629 1.02461-.23516 2.34316.78945 2.93105 1.02461.59629 2.34316.24355 2.93105-.78105.29395-.49551.36953-1.0834.21836-1.6293-.14277-.5543-.50391-1.02461-.99941-1.31016-.35273-.20996-.76426-.30234-1.17578-.28555zm6.34082 6.29043c-.36113.0084-.71387.10918-1.02461.28555-.49551.28555-.85664.75586-.99941 1.31016-.15117.5459-.07559 1.13379.21836 1.6293.58789 1.02461 1.90645 1.37734 2.93105.78105 1.02461-.58789 1.38574-1.90644.78945-2.93105-.39473-.68027-1.12539-1.0918-1.91484-1.075zm-29.83125 0c-.73906.04199-1.40254.44512-1.77207 1.075-.58789 1.03301-.23516 2.34316.79785 2.93945 1.02461.59629 2.33476.24355 2.93105-.78945.28555-.48711.36113-1.075.21836-1.6293-.15117-.5543-.51231-1.02461-.99941-1.30176-.36113-.20996-.77266-.31074-1.17578-.29395zM120.4 43c-4.72832 0-8.6 3.87168-8.6 8.6s3.87168 8.6 8.6 8.6 8.6-3.87168 8.6-8.6-3.87168-8.6-8.6-8.6zm0 4.3c2.40195 0 4.3 1.89805 4.3 4.3s-1.89805 4.3-4.3 4.3-4.3-1.89805-4.3-4.3 1.89805-4.3 4.3-4.3zm-17.2 2.15c-1.18418 0-2.15.96582-2.15 2.15s.96582 2.15 2.15 2.15 2.15-.96582 2.15-2.15-.96582-2.15-2.15-2.15zm34.4 0c-1.18418 0-2.15.96582-2.15 2.15s.96582 2.15 2.15 2.15 2.15-.96582 2.15-2.15-.96582-2.15-2.15-2.15zm-32.14922 8.6c-.36113.0084-.71387.10918-1.02461.28555-.49551.28555-.85664.75586-.99941 1.31016-.15117.5459-.07559 1.13379.20996 1.6293.59629 1.02461 1.91484 1.37734 2.93945.78105 1.02461-.58789 1.38574-1.90644.78945-2.93105-.39473-.68027-1.12539-1.0918-1.91484-1.075zm29.73887.0084c-.72226.03359-1.38574.43672-1.75527 1.0666-.28555.49551-.36113 1.0834-.21836 1.6377.15117.5543.5123 1.02461.99941 1.31016.49551.28555 1.0834.36113 1.6377.20996s1.02461-.5123 1.31016-1.00781c.58789-1.02461.23516-2.33476-.79785-2.93105-.35273-.20996-.76426-.30234-1.17578-.28555zm-6.24844 6.28203c-.35273.0084-.70547.10918-1.01621.29395-.49551.27715-.85664.74746-1.00781 1.30176-.14277.5543-.06719 1.14219.21836 1.6293.59629 1.03301 1.90644 1.38574 2.93945.78945 1.02461-.59629 1.37734-1.90645.78105-2.93945-.38633-.68027-1.12539-1.0918-1.91484-1.075zm-17.24199.0084c-.73906.03359-1.40254.43672-1.76367 1.075-.59629 1.02461-.24356 2.34316.78945 2.93945.48711.28555 1.075.36113 1.6293.20996.5543-.14277 1.02461-.50391 1.30176-.99941.29395-.49551.36953-1.0834.21836-1.6293-.15117-.5543-.5123-1.02461-.99941-1.31016-.36113-.20996-.77266-.30234-1.17578-.28555zM120.4 66.65c-1.18418 0-2.15.96582-2.15 2.15s.96582 2.15 2.15 2.15 2.15-.96582 2.15-2.15-.96582-2.15-2.15-2.15zm-70.25293 4.3l-4.06484 10.15371c-2.81348.78945-5.48418 1.90645-7.98691 3.30899l-10.05293-4.3084-8.13809 8.13809 4.3084 10.05293c-1.40254 2.50274-2.51953 5.17344-3.30899 7.98691L10.75 110.34707v11.50586l10.15371 4.06484c.78945 2.81348 1.90645 5.48418 3.30899 7.98691l-4.3084 10.05293 8.13809 8.13809 10.05293-4.3084c2.50274 1.40254 5.17344 2.51953 7.98691 3.30899L50.14707 161.25h11.50586l4.06484-10.15371c2.81348-.78945 5.48418-1.90645 7.98691-3.30899l10.05293 4.3084 8.13809-8.13809-4.3084-10.05293c1.40254-2.50273 2.51953-5.17344 3.30899-7.98691l10.15371-4.06484v-11.50586l-10.15371-4.06484c-.78945-2.81348-1.90645-5.48418-3.30899-7.98691l4.3084-10.05293-8.13809-8.13809-10.05293 4.3084c-2.50273-1.40254-5.17344-2.51953-7.98691-3.30899L61.65293 70.95zm2.90586 4.3h5.69414l3.71211 9.28867 1.075.26035c3.25859.78945 6.30723 2.07441 9.09551 3.7709l.94062.57949 9.20469-3.94727 4.02285 4.02285-3.94727 9.20469.57949.94062c1.69648 2.78828 2.98144 5.83691 3.7709 9.09551l.26035 1.075 9.28867 3.71211v5.69414l-9.28867 3.71211-.26035 1.075c-.78945 3.25859-2.07441 6.30723-3.7709 9.09551l-.57949.94062 3.94727 9.20469-4.02285 4.02285-9.20469-3.94727-.94062.57949c-2.78828 1.69648-5.83691 2.98144-9.09551 3.7709l-1.075.26035-3.71211 9.28867h-5.69414l-3.71211-9.28867-1.075-.26035c-3.25859-.78945-6.30723-2.07441-9.09551-3.7709l-.94063-.57949-9.20469 3.94727-4.02285-4.02285 3.94727-9.20469-.57949-.94062c-1.69649-2.78828-2.98145-5.83691-3.7709-9.09551l-.26035-1.075-9.28867-3.71211v-5.69414l9.28867-3.71211.26035-1.075c.78945-3.25859 2.07441-6.30723 3.7709-9.09551l.57949-.94062-3.94727-9.20469 4.02285-4.02285 9.20469 3.94727.94063-.57949c2.78828-1.69649 5.83691-2.98145 9.09551-3.7709l1.075-.26035zM55.9 92.45c-1.18418 0-2.15.96582-2.15 2.15s.96582 2.15 2.15 2.15 2.15-.96582 2.15-2.15-.96582-2.15-2.15-2.15zm-10.80039 2.88066c-.36113.0084-.71387.10918-1.02461.28555-.49551.28555-.85664.75586-1.00781 1.31016-.14277.5459-.06719 1.13379.21836 1.6293.28555.49551.75586.85664 1.31016.99941.5459.15117 1.13379.07559 1.6293-.21836 1.02461-.58789 1.37734-1.90645.78105-2.93105-.38633-.68027-1.11699-1.0918-1.90644-1.075zm21.44961.0084c-.73066.03359-1.39414.43672-1.76367 1.0666-.28555.49551-.36113 1.0834-.21836 1.6293.15117.5543.5123 1.02461 1.00781 1.31016 1.02461.59629 2.34316.23516 2.93105-.78945.59629-1.02461.24356-2.34316-.78105-2.93945-.36113-.20156-.76426-.30234-1.17578-.27715zM55.9 103.2c-7.09668 0-12.9 5.80332-12.9 12.9S48.80332 129 55.9 129s12.9-5.80332 12.9-12.9-5.80332-12.9-12.9-12.9zm18.56895 0c-.36113.0084-.71387.10918-1.02461.28555-.49551.28555-.85664.75586-1.00781 1.31016-.14277.5459-.06719 1.13379.21836 1.6293.28555.49551.75586.85664 1.31016.99941.5459.15117 1.13379.07559 1.6293-.21836 1.02461-.58789 1.37734-1.90644.78945-2.93105-.39473-.68027-1.13379-1.0918-1.91484-1.075zm-37.28907 0c-.73066.04199-1.39414.44512-1.76367 1.075-.28555.49551-.36113 1.0834-.21836 1.6293.15117.5543.5123 1.02461 1.00781 1.31016 1.02461.59629 2.34316.23516 2.93105-.78945.59629-1.02461.24355-2.34316-.78105-2.93105-.36113-.20996-.76426-.31074-1.17578-.29395zM55.9 107.5c4.77871 0 8.6 3.82129 8.6 8.6s-3.82129 8.6-8.6 8.6-8.6-3.82129-8.6-8.6 3.82129-8.6 8.6-8.6zm-21.5 6.45c-1.18418 0-2.15.96582-2.15 2.15s.96582 2.15 2.15 2.15 2.15-.96582 2.15-2.15-.96582-2.15-2.15-2.15zm43 0c-1.18418 0-2.15.96582-2.15 2.15s.96582 2.15 2.15 2.15 2.15-.96582 2.15-2.15-.96582-2.15-2.15-2.15zM37.23027 124.7c-.36113.0084-.71387.10078-1.02461.28555-1.02461.59629-1.38574 1.90644-.78945 2.93945.28555.48711.75586.84824 1.31016.99941.5459.15117 1.13379.07559 1.6293-.21836.49551-.27715.85664-.74746.99941-1.30176.15117-.5543.07559-1.14219-.21836-1.6293-.38633-.68867-1.11699-1.1002-1.90645-1.075zm37.17989 0c-.73066.04199-1.39414.44512-1.75527 1.075-.59629 1.03301-.24355 2.34316.78105 2.93945 1.03301.59629 2.34316.24355 2.93945-.78945.28555-.48711.36113-1.075.21836-1.6293-.15117-.5543-.5123-1.02461-1.00781-1.30176-.35273-.20996-.76426-.31074-1.17578-.29395zm-7.81055 7.86094c-.36113.0168-.71387.10918-1.02461.29395-1.02461.59629-1.38574 1.90645-.78945 2.93105.28555.49551.75586.85664 1.31016 1.00781.5459.15117 1.13379.07559 1.6293-.20996.49551-.28555.85664-.75586.99941-1.31016.15117-.5543.07559-1.14219-.21836-1.6377-.38633-.68027-1.11699-1.0918-1.90644-1.075zm-21.55039.0084c-.73066.04199-1.39414.44512-1.76367 1.075-.28555.49551-.36113 1.0834-.21836 1.6293.15117.5543.5123 1.02461 1.00781 1.31016.48711.28555 1.075.36113 1.6293.21836.5543-.15117 1.02461-.5123 1.30176-1.00781.59629-1.02461.24356-2.34316-.78105-2.93105-.36113-.20996-.77266-.31074-1.17578-.29395zM55.9 135.45c-1.18418 0-2.15.96582-2.15 2.15s.96582 2.15 2.15 2.15 2.15-.96582 2.15-2.15-.96582-2.15-2.15-2.15z"/>
  </g>
</svg>