<svg xmlns="http://www.w3.org/2000/svg" x="0px" y="0px"
width="80" height="80"
viewBox="0 0 172 172"
style=" fill:#000000;"><g fill="none" fill-rule="nonzero" stroke="none" stroke-width="1" stroke-linecap="butt" stroke-linejoin="miter" stroke-miterlimit="10" stroke-dasharray="" stroke-dashoffset="0" font-family="none" font-weight="none" font-size="none" text-anchor="none" style="mix-blend-mode: normal"><path d="M0,172v-172h172v172z" fill="none"></path><g fill="#e74c3c"><path d="M109.68359,11.825l-9.83457,4.07324l0.12598,10.96836c-1.57051,1.29336 -3.01504,2.73789 -4.3084,4.3084l-10.96836,-0.12598l-4.07324,9.83457l7.76016,7.57539c-0.11758,1.02461 -0.23516,2.04922 -0.23516,3.14101c0,1.0918 0.11758,2.11641 0.23516,3.14102l-7.76016,7.57539l4.07324,9.83457l10.96836,-0.12598c1.29336,1.57051 2.73789,3.01504 4.3084,4.3084l-0.12598,10.96836l9.83457,4.07324l7.57539,-7.76016c1.02461,0.11758 2.04922,0.23516 3.14101,0.23516c1.0918,0 2.11641,-0.11758 3.14102,-0.23516l7.57539,7.76016l9.83457,-4.07324l-0.12598,-10.96836c1.57051,-1.29336 3.01504,-2.73789 4.3084,-4.3084l10.96836,0.12598l4.07324,-9.83457l-7.76016,-7.57539c0.11758,-1.02461 0.23516,-2.04922 0.23516,-3.14102c0,-1.0918 -0.11758,-2.11641 -0.23516,-3.14101l7.76016,-7.57539l-4.07324,-9.83457l-10.96836,0.12598c-1.29336,-1.57051 -2.73789,-3.01504 -4.3084,-4.3084l0.12598,-10.96836l-9.83457,-4.07324l-7.57539,7.76016c-1.02461,-0.11758 -2.04922,-0.23516 -3.14102,-0.23516c-1.0918,0 -2.11641,0.11758 -3.14101,0.23516zM108.64219,16.91445l6.9875,7.15547l1.075,-0.14278c1.24297,-0.16797 2.46914,-0.27715 3.69531,-0.27715c1.22617,0 2.45234,0.10918 3.69531,0.27715l1.075,0.14278l6.9875,-7.15547l4.45957,1.84766l-0.12598,10.00254l0.86504,0.65508c1.96523,1.50332 3.72051,3.25859 5.22383,5.22383l0.65508,0.86504l10.01094,-0.12598l1.84766,4.45957l-7.16387,6.9875l0.14277,1.075c0.16797,1.24297 0.27715,2.46914 0.27715,3.69531c0,1.22617 -0.10918,2.45234 -0.27715,3.69531l-0.14277,1.075l7.16387,6.9875l-1.84766,4.45957l-10.01094,-0.12598l-0.65508,0.86504c-1.50332,1.96523 -3.25859,3.72051 -5.22383,5.22383l-0.86504,0.65508l0.12598,10.01094l-4.45957,1.84766l-6.9875,-7.16387l-1.075,0.14277c-1.24297,0.16797 -2.46914,0.27715 -3.69531,0.27715c-1.22617,0 -2.45234,-0.10918 -3.69531,-0.27715l-1.075,-0.14277l-6.9875,7.16387l-4.45957,-1.84766l0.12598,-10.01094l-0.86504,-0.65508c-1.96523,-1.50332 -3.72051,-3.25859 -5.22383,-5.22383l-0.65508,-0.86504l-10.01094,0.12598l-1.84766,-4.45957l7.16387,-6.9875l-0.14278,-1.075c-0.16797,-1.24297 -0.27715,-2.46914 -0.27715,-3.69531c0,-1.22617 0.10918,-2.45234 0.27715,-3.69531l0.14278,-1.075l-7.16387,-6.9875l1.84766,-4.45957l10.01094,0.12598l0.65508,-0.86504c1.50332,-1.96523 3.25859,-3.72051 5.22383,-5.22383l0.86504,-0.65508l-0.12598,-10.00254zM120.4,32.25c-1.18418,0 -2.15,0.96582 -2.15,2.15c0,1.18418 0.96582,2.15 2.15,2.15c1.18418,0 2.15,-0.96582 2.15,-2.15c0,-1.18418 -0.96582,-2.15 -2.15,-2.15zM111.74121,34.55957c-0.35273,0 -0.70547,0.10078 -1.01621,0.27715c-0.49551,0.28555 -0.85664,0.75586 -1.00781,1.31016c-0.14277,0.5543 -0.06719,1.14219 0.21836,1.6377c0.59629,1.02461 1.90644,1.37734 2.93945,0.78105c1.02461,-0.59629 1.37734,-1.90645 0.78105,-2.93105c-0.38633,-0.68867 -1.12539,-1.1002 -1.91484,-1.075zM128.89922,34.55957c-0.73066,0.03359 -1.39414,0.43672 -1.76367,1.075c-0.59629,1.02461 -0.23516,2.34316 0.78945,2.93105c1.02461,0.59629 2.34316,0.24355 2.93105,-0.78105c0.29395,-0.49551 0.36953,-1.0834 0.21836,-1.6293c-0.14277,-0.5543 -0.50391,-1.02461 -0.99941,-1.31016c-0.35273,-0.20996 -0.76426,-0.30234 -1.17578,-0.28555zM135.24004,40.85c-0.36113,0.0084 -0.71387,0.10918 -1.02461,0.28555c-0.49551,0.28555 -0.85664,0.75586 -0.99941,1.31016c-0.15117,0.5459 -0.07559,1.13379 0.21836,1.6293c0.58789,1.02461 1.90645,1.37734 2.93105,0.78105c1.02461,-0.58789 1.38574,-1.90644 0.78945,-2.93105c-0.39473,-0.68027 -1.12539,-1.0918 -1.91484,-1.075zM105.40879,40.85c-0.73906,0.04199 -1.40254,0.44512 -1.77207,1.075c-0.58789,1.03301 -0.23516,2.34316 0.79785,2.93945c1.02461,0.59629 2.33476,0.24355 2.93105,-0.78945c0.28555,-0.48711 0.36113,-1.075 0.21836,-1.6293c-0.15117,-0.5543 -0.51231,-1.02461 -0.99941,-1.30176c-0.36113,-0.20996 -0.77266,-0.31074 -1.17578,-0.29395zM120.4,43c-4.72832,0 -8.6,3.87168 -8.6,8.6c0,4.72832 3.87168,8.6 8.6,8.6c4.72832,0 8.6,-3.87168 8.6,-8.6c0,-4.72832 -3.87168,-8.6 -8.6,-8.6zM120.4,47.3c2.40195,0 4.3,1.89805 4.3,4.3c0,2.40195 -1.89805,4.3 -4.3,4.3c-2.40195,0 -4.3,-1.89805 -4.3,-4.3c0,-2.40195 1.89805,-4.3 4.3,-4.3zM103.2,49.45c-1.18418,0 -2.15,0.96582 -2.15,2.15c0,1.18418 0.96582,2.15 2.15,2.15c1.18418,0 2.15,-0.96582 2.15,-2.15c0,-1.18418 -0.96582,-2.15 -2.15,-2.15zM137.6,49.45c-1.18418,0 -2.15,0.96582 -2.15,2.15c0,1.18418 0.96582,2.15 2.15,2.15c1.18418,0 2.15,-0.96582 2.15,-2.15c0,-1.18418 -0.96582,-2.15 -2.15,-2.15zM105.45078,58.05c-0.36113,0.0084 -0.71387,0.10918 -1.02461,0.28555c-0.49551,0.28555 -0.85664,0.75586 -0.99941,1.31016c-0.15117,0.5459 -0.07559,1.13379 0.20996,1.6293c0.59629,1.02461 1.91484,1.37734 2.93945,0.78105c1.02461,-0.58789 1.38574,-1.90644 0.78945,-2.93105c-0.39473,-0.68027 -1.12539,-1.0918 -1.91484,-1.075zM135.18965,58.0584c-0.72226,0.03359 -1.38574,0.43672 -1.75527,1.0666c-0.28555,0.49551 -0.36113,1.0834 -0.21836,1.6377c0.15117,0.5543 0.5123,1.02461 0.99941,1.31016c0.49551,0.28555 1.0834,0.36113 1.6377,0.20996c0.5543,-0.15117 1.02461,-0.5123 1.31016,-1.00781c0.58789,-1.02461 0.23516,-2.33476 -0.79785,-2.93105c-0.35273,-0.20996 -0.76426,-0.30234 -1.17578,-0.28555zM128.94121,64.34043c-0.35273,0.0084 -0.70547,0.10918 -1.01621,0.29395c-0.49551,0.27715 -0.85664,0.74746 -1.00781,1.30176c-0.14277,0.5543 -0.06719,1.14219 0.21836,1.6293c0.59629,1.03301 1.90644,1.38574 2.93945,0.78945c1.02461,-0.59629 1.37734,-1.90645 0.78105,-2.93945c-0.38633,-0.68027 -1.12539,-1.0918 -1.91484,-1.075zM111.69922,64.34883c-0.73906,0.03359 -1.40254,0.43672 -1.76367,1.075c-0.59629,1.02461 -0.24356,2.34316 0.78945,2.93945c0.48711,0.28555 1.075,0.36113 1.6293,0.20996c0.5543,-0.14277 1.02461,-0.50391 1.30176,-0.99941c0.29395,-0.49551 0.36953,-1.0834 0.21836,-1.6293c-0.15117,-0.5543 -0.5123,-1.02461 -0.99941,-1.31016c-0.36113,-0.20996 -0.77266,-0.30234 -1.17578,-0.28555zM120.4,66.65c-1.18418,0 -2.15,0.96582 -2.15,2.15c0,1.18418 0.96582,2.15 2.15,2.15c1.18418,0 2.15,-0.96582 2.15,-2.15c0,-1.18418 -0.96582,-2.15 -2.15,-2.15zM50.14707,70.95l-4.06484,10.15371c-2.81348,0.78945 -5.48418,1.90645 -7.98691,3.30899l-10.05293,-4.3084l-8.13809,8.13809l4.3084,10.05293c-1.40254,2.50274 -2.51953,5.17344 -3.30899,7.98691l-10.15371,4.06484v11.50586l10.15371,4.06484c0.78945,2.81348 1.90645,5.48418 3.30899,7.98691l-4.3084,10.05293l8.13809,8.13809l10.05293,-4.3084c2.50274,1.40254 5.17344,2.51953 7.98691,3.30899l4.06484,10.15371h11.50586l4.06484,-10.15371c2.81348,-0.78945 5.48418,-1.90645 7.98691,-3.30899l10.05293,4.3084l8.13809,-8.13809l-4.3084,-10.05293c1.40254,-2.50273 2.51953,-5.17344 3.30899,-7.98691l10.15371,-4.06484v-11.50586l-10.15371,-4.06484c-0.78945,-2.81348 -1.90645,-5.48418 -3.30899,-7.98691l4.3084,-10.05293l-8.13809,-8.13809l-10.05293,4.3084c-2.50273,-1.40254 -5.17344,-2.51953 -7.98691,-3.30899l-4.06484,-10.15371zM53.05293,75.25h5.69414l3.71211,9.28867l1.075,0.26035c3.25859,0.78945 6.30723,2.07441 9.09551,3.7709l0.94062,0.57949l9.20469,-3.94727l4.02285,4.02285l-3.94727,9.20469l0.57949,0.94062c1.69648,2.78828 2.98144,5.83691 3.7709,9.09551l0.26035,1.075l9.28867,3.71211v5.69414l-9.28867,3.71211l-0.26035,1.075c-0.78945,3.25859 -2.07441,6.30723 -3.7709,9.09551l-0.57949,0.94062l3.94727,9.20469l-4.02285,4.02285l-9.20469,-3.94727l-0.94062,0.57949c-2.78828,1.69648 -5.83691,2.98144 -9.09551,3.7709l-1.075,0.26035l-3.71211,9.28867h-5.69414l-3.71211,-9.28867l-1.075,-0.26035c-3.25859,-0.78945 -6.30723,-2.07441 -9.09551,-3.7709l-0.94063,-0.57949l-9.20469,3.94727l-4.02285,-4.02285l3.94727,-9.20469l-0.57949,-0.94062c-1.69649,-2.78828 -2.98145,-5.83691 -3.7709,-9.09551l-0.26035,-1.075l-9.28867,-3.71211v-5.69414l9.28867,-3.71211l0.26035,-1.075c0.78945,-3.25859 2.07441,-6.30723 3.7709,-9.09551l0.57949,-0.94062l-3.94727,-9.20469l4.02285,-4.02285l9.20469,3.94727l0.94063,-0.57949c2.78828,-1.69649 5.83691,-2.98145 9.09551,-3.7709l1.075,-0.26035zM55.9,92.45c-1.18418,0 -2.15,0.96582 -2.15,2.15c0,1.18418 0.96582,2.15 2.15,2.15c1.18418,0 2.15,-0.96582 2.15,-2.15c0,-1.18418 -0.96582,-2.15 -2.15,-2.15zM45.09961,95.33066c-0.36113,0.0084 -0.71387,0.10918 -1.02461,0.28555c-0.49551,0.28555 -0.85664,0.75586 -1.00781,1.31016c-0.14277,0.5459 -0.06719,1.13379 0.21836,1.6293c0.28555,0.49551 0.75586,0.85664 1.31016,0.99941c0.5459,0.15117 1.13379,0.07559 1.6293,-0.21836c1.02461,-0.58789 1.37734,-1.90645 0.78105,-2.93105c-0.38633,-0.68027 -1.11699,-1.0918 -1.90644,-1.075zM66.54922,95.33906c-0.73066,0.03359 -1.39414,0.43672 -1.76367,1.0666c-0.28555,0.49551 -0.36113,1.0834 -0.21836,1.6293c0.15117,0.5543 0.5123,1.02461 1.00781,1.31016c1.02461,0.59629 2.34316,0.23516 2.93105,-0.78945c0.59629,-1.02461 0.24356,-2.34316 -0.78105,-2.93945c-0.36113,-0.20156 -0.76426,-0.30234 -1.17578,-0.27715zM55.9,103.2c-7.09668,0 -12.9,5.80332 -12.9,12.9c0,7.09668 5.80332,12.9 12.9,12.9c7.09668,0 12.9,-5.80332 12.9,-12.9c0,-7.09668 -5.80332,-12.9 -12.9,-12.9zM74.46895,103.2c-0.36113,0.0084 -0.71387,0.10918 -1.02461,0.28555c-0.49551,0.28555 -0.85664,0.75586 -1.00781,1.31016c-0.14277,0.5459 -0.06719,1.13379 0.21836,1.6293c0.28555,0.49551 0.75586,0.85664 1.31016,0.99941c0.5459,0.15117 1.13379,0.07559 1.6293,-0.21836c1.02461,-0.58789 1.37734,-1.90644 0.78945,-2.93105c-0.39473,-0.68027 -1.13379,-1.0918 -1.91484,-1.075zM37.17988,103.2c-0.73066,0.04199 -1.39414,0.44512 -1.76367,1.075c-0.28555,0.49551 -0.36113,1.0834 -0.21836,1.6293c0.15117,0.5543 0.5123,1.02461 1.00781,1.31016c1.02461,0.59629 2.34316,0.23516 2.93105,-0.78945c0.59629,-1.02461 0.24355,-2.34316 -0.78105,-2.93105c-0.36113,-0.20996 -0.76426,-0.31074 -1.17578,-0.29395zM55.9,107.5c4.77871,0 8.6,3.82129 8.6,8.6c0,4.77871 -3.82129,8.6 -8.6,8.6c-4.77871,0 -8.6,-3.82129 -8.6,-8.6c0,-4.77871 3.82129,-8.6 8.6,-8.6zM34.4,113.95c-1.18418,0 -2.15,0.96582 -2.15,2.15c0,1.18418 0.96582,2.15 2.15,2.15c1.18418,0 2.15,-0.96582 2.15,-2.15c0,-1.18418 -0.96582,-2.15 -2.15,-2.15zM77.4,113.95c-1.18418,0 -2.15,0.96582 -2.15,2.15c0,1.18418 0.96582,2.15 2.15,2.15c1.18418,0 2.15,-0.96582 2.15,-2.15c0,-1.18418 -0.96582,-2.15 -2.15,-2.15zM37.23027,124.7c-0.36113,0.0084 -0.71387,0.10078 -1.02461,0.28555c-1.02461,0.59629 -1.38574,1.90644 -0.78945,2.93945c0.28555,0.48711 0.75586,0.84824 1.31016,0.99941c0.5459,0.15117 1.13379,0.07559 1.6293,-0.21836c0.49551,-0.27715 0.85664,-0.74746 0.99941,-1.30176c0.15117,-0.5543 0.07559,-1.14219 -0.21836,-1.6293c-0.38633,-0.68867 -1.11699,-1.1002 -1.90645,-1.075zM74.41016,124.7c-0.73066,0.04199 -1.39414,0.44512 -1.75527,1.075c-0.59629,1.03301 -0.24355,2.34316 0.78105,2.93945c1.03301,0.59629 2.34316,0.24355 2.93945,-0.78945c0.28555,-0.48711 0.36113,-1.075 0.21836,-1.6293c-0.15117,-0.5543 -0.5123,-1.02461 -1.00781,-1.30176c-0.35273,-0.20996 -0.76426,-0.31074 -1.17578,-0.29395zM66.59961,132.56094c-0.36113,0.0168 -0.71387,0.10918 -1.02461,0.29395c-1.02461,0.59629 -1.38574,1.90645 -0.78945,2.93105c0.28555,0.49551 0.75586,0.85664 1.31016,1.00781c0.5459,0.15117 1.13379,0.07559 1.6293,-0.20996c0.49551,-0.28555 0.85664,-0.75586 0.99941,-1.31016c0.15117,-0.5543 0.07559,-1.14219 -0.21836,-1.6377c-0.38633,-0.68027 -1.11699,-1.0918 -1.90644,-1.075zM45.04922,132.56934c-0.73066,0.04199 -1.39414,0.44512 -1.76367,1.075c-0.28555,0.49551 -0.36113,1.0834 -0.21836,1.6293c0.15117,0.5543 0.5123,1.02461 1.00781,1.31016c0.48711,0.28555 1.075,0.36113 1.6293,0.21836c0.5543,-0.15117 1.02461,-0.5123 1.30176,-1.00781c0.59629,-1.02461 0.24356,-2.34316 -0.78105,-2.93105c-0.36113,-0.20996 -0.77266,-0.31074 -1.17578,-0.29395zM55.9,135.45c-1.18418,0 -2.15,0.96582 -2.15,2.15c0,1.18418 0.96582,2.15 2.15,2.15c1.18418,0 2.15,-0.96582 2.15,-2.15c0,-1.18418 -0.96582,-2.15 -2.15,-2.15z"></path></g></g></svg>