<svg
  xmlns="http://www.w3.org/2000/svg"
  viewBox="0 0 300 300"
  class="icon"
>
  <defs>
    <linearGradient
      gradientTransform="rotate(25)"
      id="30cafcf4-ff23-4c17-a911-eb57c8cc47a3"
      x1="0%"
      y1="0%"
      x2="100%"
      y2="0%"
    >
      <stop
        offset="0%"
        stop-color="#1E0B36"
        stop-opacity="1"
      ></stop>
      <stop
        offset="100%"
        stop-color="#CA3782"
        stop-opacity="1"
      ></stop>
    </linearGradient>
  </defs>
  <g
    id="339f4917-dacf-4c1d-9a91-db3a5447f4bb"
    fill="url(#30cafcf4-ff23-4c17-a911-eb57c8cc47a3)"
    stroke="none"
    transform="matrix(2.746566582225817,0,0,2.746566582225817,26.267167088870913,26.541830033485514)"
  >
    <g clip-rule="evenodd">
      <path
        d="M77.2 10H12.8C8.2 10 5 13.8 5 17.9V72c0 4.1 3.2 7.9 7.8 7.9h64.5c4.6 0 7.8-3.8 7.8-7.9V17.9c-.1-4.1-3.3-7.9-7.9-7.9zm-64.4 7h64.5c1 0 1.8.6 1.8.9V33H11V17.9c0-.3.7-.9 1.8-.9zm64.4 56H12.8c-1 0-1.8-.6-1.8-.9V37h68v35.1c0 .3-.7.9-1.8.9z"
      ></path>
      <path
        d="M71.4 27.8c1.4 0 2.6-1.2 2.6-2.7 0-1.5-1.2-2.7-2.6-2.7-1.4 0-2.6 1.2-2.6 2.7 0 1.5 1.2 2.7 2.6 2.7zM60.9 27.8c1.4 0 2.6-1.2 2.6-2.7 0-1.5-1.2-2.7-2.6-2.7-1.5 0-2.6 1.2-2.6 2.7-.1 1.5 1.1 2.7 2.6 2.7zM50.3 27.8c1.4 0 2.6-1.2 2.6-2.7 0-1.5-1.2-2.7-2.6-2.7-1.5 0-2.7 1.2-2.7 2.7 0 1.5 1.2 2.7 2.7 2.7z"
      ></path>
    </g>
  </g>
</svg>
