<svg xmlns="http://www.w3.org/2000/svg" viewBox="0 0 172 172">
  <defs>
    <style>
      @import url("/vars.css");
    </style>
  </defs>
  <g fill="none" stroke-miterlimit="10" font-family="none" font-size="none" font-weight="none" style="mix-blend-mode:normal" text-anchor="none">
    <path d="M0 172V0h172v172z"/>
    <path style="fill:var(--logo-color);" d="M111.8 16.30977l-6.81953 6.81953c-5.02226 5.02226-5.02226 13.21914 0 18.24141l.04199.05039-33.22422 26.8918c-9.84297-5.61016-22.19707-4.77031-31.21699 2.53633-2.52793-1.31855-5.58496-1.38574-7.70137.73066-2.60352 2.60351-2.60352 6.88672 0 9.49023L60.38476 108.575l-42.55488 42.55488 3.04023 3.04023 42.55488-42.55488 27.50488 27.50488c2.60351 2.60352 6.88672 2.60352 9.49023 0 2.11641-2.11641 2.05762-5.18184.73066-7.70976 7.30664-9.01992 8.14649-21.37402 2.53633-31.21699l26.8918-33.21582.05039.04199c5.02226 5.02227 13.21914 5.02227 18.24141 0L155.69022 60.2zm0 6.08047L149.60977 60.2l-3.7793 3.7793c-3.37617 3.37617-8.78476 3.37617-12.16094 0l-3.16621-3.17461c-.0168-.0084-.0252-.0168-.03359-.0252l-.22676-.21836-.0252.0168C129.86504 60.33438 129.43672 60.2 129 60.2c-1.18418 0-2.15.96582-2.15 2.15 0 .58789.24355 1.15899.67188 1.56211L98.55567 99.70625l.85664 1.31016c5.76133 8.80156 5.03066 20.57617-2.1668 28.64707l-1.36055 1.52012 1.49492 1.48652c.95742.95742.95742 2.45234 0 3.40977-.95742.95742-2.45234.95742-3.40977 0l-58.05-58.05c-.95742-.95742-.95742-2.45234 0-3.40977.95742-.95742 2.45234-.95742 3.40977 0l.0168.0168L40.85 76.08145l1.48652-1.32695c8.0709-7.20586 19.84551-7.92812 28.64707-2.1668l1.31016.85664 35.79414-28.96621c.40313.42832.97422.67188 1.56211.67188 1.18418 0 2.15-.96582 2.15-2.15 0-.43672-.13438-.86504-.37793-1.21777l.0252-.0252-3.42656-3.42656c-3.37617-3.37617-3.37617-8.78476 0-12.16094zM116.1 47.3c-1.18418 0-2.15.96582-2.15 2.15s.96582 2.15 2.15 2.15 2.15-.96582 2.15-2.15-.96582-2.15-2.15-2.15zm6.45 6.45c-1.18418 0-2.15.96582-2.15 2.15s.96582 2.15 2.15 2.15 2.15-.96582 2.15-2.15-.96582-2.15-2.15-2.15zM77.4 73.1c-1.18418 0-2.15.96582-2.15 2.15s.96582 2.15 2.15 2.15 2.15-.96582 2.15-2.15-.96582-2.15-2.15-2.15zm-30.1 4.3c-1.18418 0-2.15.96582-2.15 2.15s.96582 2.15 2.15 2.15 2.15-.96582 2.15-2.15-.96582-2.15-2.15-2.15zm36.55 2.15c-1.18418 0-2.15.96582-2.15 2.15s.96582 2.15 2.15 2.15S86 82.88418 86 81.7s-.96582-2.15-2.15-2.15zm-30.1 4.3c-1.18418 0-2.15.96582-2.15 2.15s.96582 2.15 2.15 2.15 2.15-.96582 2.15-2.15-.96582-2.15-2.15-2.15zM90.3 86c-1.18418 0-2.15.96582-2.15 2.15s.96582 2.15 2.15 2.15 2.15-.96582 2.15-2.15S91.48418 86 90.3 86zm-30.1 4.3c-1.18418 0-2.15.96582-2.15 2.15s.96582 2.15 2.15 2.15 2.15-.96582 2.15-2.15-.96582-2.15-2.15-2.15zm36.55 2.15c-1.18418 0-2.15.96582-2.15 2.15s.96582 2.15 2.15 2.15 2.15-.96582 2.15-2.15-.96582-2.15-2.15-2.15zm-30.1 4.3c-1.18418 0-2.15.96582-2.15 2.15s.96582 2.15 2.15 2.15 2.15-.96582 2.15-2.15-.96582-2.15-2.15-2.15zm6.45 6.45c-1.18418 0-2.15.96582-2.15 2.15s.96582 2.15 2.15 2.15 2.15-.96582 2.15-2.15-.96582-2.15-2.15-2.15zm6.45 6.45c-1.18418 0-2.15.96582-2.15 2.15s.96582 2.15 2.15 2.15 2.15-.96582 2.15-2.15-.96582-2.15-2.15-2.15zM86 116.1c-1.18418 0-2.15.96582-2.15 2.15s.96582 2.15 2.15 2.15 2.15-.96582 2.15-2.15-.96582-2.15-2.15-2.15zm6.45 6.45c-1.18418 0-2.15.96582-2.15 2.15s.96582 2.15 2.15 2.15 2.15-.96582 2.15-2.15-.96582-2.15-2.15-2.15z"/>
  </g>
</svg>