<svg xmlns="http://www.w3.org/2000/svg" x="0px" y="0px"
width="80" height="80"
viewBox="0 0 172 172"
style=" fill:#000000;"><g fill="none" fill-rule="nonzero" stroke="none" stroke-width="1" stroke-linecap="butt" stroke-linejoin="miter" stroke-miterlimit="10" stroke-dasharray="" stroke-dashoffset="0" font-family="none" font-weight="none" font-size="none" text-anchor="none" style="mix-blend-mode: normal"><path d="M0,172v-172h172v172z" fill="none"></path><g fill="#e74c3c"><path d="M111.8,16.30977l-6.81953,6.81953c-5.02226,5.02226 -5.02226,13.21914 0,18.24141l0.04199,0.05039l-33.22422,26.8918c-9.84297,-5.61016 -22.19707,-4.77031 -31.21699,2.53633c-2.52793,-1.31855 -5.58496,-1.38574 -7.70137,0.73066c-2.60352,2.60351 -2.60352,6.88672 0,9.49023l27.50488,27.50488l-42.55488,42.55488l3.04023,3.04023l42.55488,-42.55488l27.50488,27.50488c2.60351,2.60352 6.88672,2.60352 9.49023,0c2.11641,-2.11641 2.05762,-5.18184 0.73066,-7.70976c7.30664,-9.01992 8.14649,-21.37402 2.53633,-31.21699l26.8918,-33.21582l0.05039,0.04199c5.02226,5.02227 13.21914,5.02227 18.24141,0l6.81953,-6.81953zM111.8,22.39024l37.80977,37.80976l-3.7793,3.7793c-3.37617,3.37617 -8.78476,3.37617 -12.16094,0l-3.16621,-3.17461c-0.0168,-0.0084 -0.0252,-0.0168 -0.03359,-0.0252l-0.22676,-0.21836l-0.0252,0.0168c-0.35273,-0.24355 -0.78105,-0.37793 -1.21777,-0.37793c-1.18418,0 -2.15,0.96582 -2.15,2.15c0,0.58789 0.24355,1.15899 0.67188,1.56211l-28.96621,35.79414l0.85664,1.31016c5.76133,8.80156 5.03066,20.57617 -2.1668,28.64707l-1.36055,1.52012l1.49492,1.48652c0.95742,0.95742 0.95742,2.45234 0,3.40977c-0.95742,0.95742 -2.45234,0.95742 -3.40977,0l-58.05,-58.05c-0.95742,-0.95742 -0.95742,-2.45234 0,-3.40977c0.95742,-0.95742 2.45234,-0.95742 3.40977,0l0.0168,0.0168l1.50332,1.44453l1.48652,-1.32695c8.0709,-7.20586 19.84551,-7.92812 28.64707,-2.1668l1.31016,0.85664l35.79414,-28.96621c0.40313,0.42832 0.97422,0.67188 1.56211,0.67188c1.18418,0 2.15,-0.96582 2.15,-2.15c0,-0.43672 -0.13438,-0.86504 -0.37793,-1.21777l0.0252,-0.0252l-3.42656,-3.42656c-3.37617,-3.37617 -3.37617,-8.78476 0,-12.16094zM116.1,47.3c-1.18418,0 -2.15,0.96582 -2.15,2.15c0,1.18418 0.96582,2.15 2.15,2.15c1.18418,0 2.15,-0.96582 2.15,-2.15c0,-1.18418 -0.96582,-2.15 -2.15,-2.15zM122.55,53.75c-1.18418,0 -2.15,0.96582 -2.15,2.15c0,1.18418 0.96582,2.15 2.15,2.15c1.18418,0 2.15,-0.96582 2.15,-2.15c0,-1.18418 -0.96582,-2.15 -2.15,-2.15zM77.4,73.1c-1.18418,0 -2.15,0.96582 -2.15,2.15c0,1.18418 0.96582,2.15 2.15,2.15c1.18418,0 2.15,-0.96582 2.15,-2.15c0,-1.18418 -0.96582,-2.15 -2.15,-2.15zM47.3,77.4c-1.18418,0 -2.15,0.96582 -2.15,2.15c0,1.18418 0.96582,2.15 2.15,2.15c1.18418,0 2.15,-0.96582 2.15,-2.15c0,-1.18418 -0.96582,-2.15 -2.15,-2.15zM83.85,79.55c-1.18418,0 -2.15,0.96582 -2.15,2.15c0,1.18418 0.96582,2.15 2.15,2.15c1.18418,0 2.15,-0.96582 2.15,-2.15c0,-1.18418 -0.96582,-2.15 -2.15,-2.15zM53.75,83.85c-1.18418,0 -2.15,0.96582 -2.15,2.15c0,1.18418 0.96582,2.15 2.15,2.15c1.18418,0 2.15,-0.96582 2.15,-2.15c0,-1.18418 -0.96582,-2.15 -2.15,-2.15zM90.3,86c-1.18418,0 -2.15,0.96582 -2.15,2.15c0,1.18418 0.96582,2.15 2.15,2.15c1.18418,0 2.15,-0.96582 2.15,-2.15c0,-1.18418 -0.96582,-2.15 -2.15,-2.15zM60.2,90.3c-1.18418,0 -2.15,0.96582 -2.15,2.15c0,1.18418 0.96582,2.15 2.15,2.15c1.18418,0 2.15,-0.96582 2.15,-2.15c0,-1.18418 -0.96582,-2.15 -2.15,-2.15zM96.75,92.45c-1.18418,0 -2.15,0.96582 -2.15,2.15c0,1.18418 0.96582,2.15 2.15,2.15c1.18418,0 2.15,-0.96582 2.15,-2.15c0,-1.18418 -0.96582,-2.15 -2.15,-2.15zM66.65,96.75c-1.18418,0 -2.15,0.96582 -2.15,2.15c0,1.18418 0.96582,2.15 2.15,2.15c1.18418,0 2.15,-0.96582 2.15,-2.15c0,-1.18418 -0.96582,-2.15 -2.15,-2.15zM73.1,103.2c-1.18418,0 -2.15,0.96582 -2.15,2.15c0,1.18418 0.96582,2.15 2.15,2.15c1.18418,0 2.15,-0.96582 2.15,-2.15c0,-1.18418 -0.96582,-2.15 -2.15,-2.15zM79.55,109.65c-1.18418,0 -2.15,0.96582 -2.15,2.15c0,1.18418 0.96582,2.15 2.15,2.15c1.18418,0 2.15,-0.96582 2.15,-2.15c0,-1.18418 -0.96582,-2.15 -2.15,-2.15zM86,116.1c-1.18418,0 -2.15,0.96582 -2.15,2.15c0,1.18418 0.96582,2.15 2.15,2.15c1.18418,0 2.15,-0.96582 2.15,-2.15c0,-1.18418 -0.96582,-2.15 -2.15,-2.15zM92.45,122.55c-1.18418,0 -2.15,0.96582 -2.15,2.15c0,1.18418 0.96582,2.15 2.15,2.15c1.18418,0 2.15,-0.96582 2.15,-2.15c0,-1.18418 -0.96582,-2.15 -2.15,-2.15z"></path></g></g></svg>