<svg xmlns="http://www.w3.org/2000/svg" viewBox="0 0 172 172">
  <defs>
    <style>
      @import url("/vars.css");
    </style>
  </defs>
  <g fill="none" stroke-miterlimit="10" font-family="none" font-size="none" font-weight="none" style="mix-blend-mode:normal" text-anchor="none">
    <path d="M0 172V0h172v172z"/>
    <path style="fill:var(--logo-color);" d="M23.65 27.95c-4.72427 0-8.6 3.87573-8.6 8.6v107.5h141.9V36.55c0-4.72427-3.87573-8.6-8.6-8.6zm0 4.3h124.7c2.40083 0 4.3 1.89917 4.3 4.3v25.8H19.35v-25.8c0-2.40083 1.89917-4.3 4.3-4.3zM34.4 38.7c-4.72418 0-8.6 3.87582-8.6 8.6s3.87582 8.6 8.6 8.6c2.57383 0 4.8694-1.17433 6.45-2.98564C42.4306 54.72567 44.72617 55.9 47.3 55.9c4.72418 0 8.6-3.87582 8.6-8.6s-3.87582-8.6-8.6-8.6c-2.57383 0-4.8694 1.17433-6.45 2.98564C39.2694 39.87433 36.97383 38.7 34.4 38.7zm27.95 0v17.2h83.85V38.7zM34.4 43c2.40029 0 4.3 1.89971 4.3 4.3s-1.89971 4.3-4.3 4.3-4.3-1.89971-4.3-4.3 1.89971-4.3 4.3-4.3zm12.9 0c2.40029 0 4.3 1.89971 4.3 4.3s-1.89971 4.3-4.3 4.3-4.3-1.89971-4.3-4.3 1.89971-4.3 4.3-4.3zm19.35 0h75.25v8.6H66.65zm-47.3 23.65h133.3v73.1H19.35zm10.75 8.6c-1.18741 0-2.15.96259-2.15 2.15 0 1.18741.96259 2.15 2.15 2.15 1.18741 0 2.15-.96259 2.15-2.15 0-1.18741-.96259-2.15-2.15-2.15zm8.6 0c-1.18741 0-2.15.96259-2.15 2.15 0 1.18741.96259 2.15 2.15 2.15 1.18741 0 2.15-.96259 2.15-2.15 0-1.18741-.96259-2.15-2.15-2.15zm8.6 0c-1.18741 0-2.15.96259-2.15 2.15 0 1.18741.96259 2.15 2.15 2.15 1.18741 0 2.15-.96259 2.15-2.15 0-1.18741-.96259-2.15-2.15-2.15zm8.6 0c-1.18741 0-2.15.96259-2.15 2.15 0 1.18741.96259 2.15 2.15 2.15 1.18741 0 2.15-.96259 2.15-2.15 0-1.18741-.96259-2.15-2.15-2.15zm8.6 0c-1.18741 0-2.15.96259-2.15 2.15 0 1.18741.96259 2.15 2.15 2.15 1.18741 0 2.15-.96259 2.15-2.15 0-1.18741-.96259-2.15-2.15-2.15zm8.6 0c-1.18741 0-2.15.96259-2.15 2.15 0 1.18741.96259 2.15 2.15 2.15 1.18741 0 2.15-.96259 2.15-2.15 0-1.18741-.96259-2.15-2.15-2.15zm8.6 0c-1.18741 0-2.15.96259-2.15 2.15 0 1.18741.96259 2.15 2.15 2.15 1.18741 0 2.15-.96259 2.15-2.15 0-1.18741-.96259-2.15-2.15-2.15zm17.2 0c-1.18741 0-2.15.96259-2.15 2.15 0 1.18741.96259 2.15 2.15 2.15 1.18741 0 2.15-.96259 2.15-2.15 0-1.18741-.96259-2.15-2.15-2.15zm8.6 0c-1.18741 0-2.15.96259-2.15 2.15 0 1.18741.96259 2.15 2.15 2.15 1.18741 0 2.15-.96259 2.15-2.15 0-1.18741-.96259-2.15-2.15-2.15zm8.6 0c-1.18741 0-2.15.96259-2.15 2.15 0 1.18741.96259 2.15 2.15 2.15 1.18741 0 2.15-.96259 2.15-2.15 0-1.18741-.96259-2.15-2.15-2.15zm8.6 0c-1.18741 0-2.15.96259-2.15 2.15 0 1.18741.96259 2.15 2.15 2.15 1.18741 0 2.15-.96259 2.15-2.15 0-1.18741-.96259-2.15-2.15-2.15zm8.6 0c-1.18741 0-2.15.96259-2.15 2.15 0 1.18741.96259 2.15 2.15 2.15 1.18741 0 2.15-.96259 2.15-2.15 0-1.18741-.96259-2.15-2.15-2.15zm8.6 0c-1.18741 0-2.15.96259-2.15 2.15 0 1.18741.96259 2.15 2.15 2.15 1.18741 0 2.15-.96259 2.15-2.15 0-1.18741-.96259-2.15-2.15-2.15zm-111.8 8.6c-1.18741 0-2.15.96259-2.15 2.15 0 1.18741.96259 2.15 2.15 2.15 1.18741 0 2.15-.96259 2.15-2.15 0-1.18741-.96259-2.15-2.15-2.15zm51.6 0c-1.18741 0-2.15.96259-2.15 2.15 0 1.18741.96259 2.15 2.15 2.15 1.18741 0 2.15-.96259 2.15-2.15 0-1.18741-.96259-2.15-2.15-2.15zm17.2 0c-1.18741 0-2.15.96259-2.15 2.15 0 1.18741.96259 2.15 2.15 2.15 1.18741 0 2.15-.96259 2.15-2.15 0-1.18741-.96259-2.15-2.15-2.15zm43 0c-1.18741 0-2.15.96259-2.15 2.15 0 1.18741.96259 2.15 2.15 2.15 1.18741 0 2.15-.96259 2.15-2.15 0-1.18741-.96259-2.15-2.15-2.15zm-111.8 8.6c-1.18741 0-2.15.96259-2.15 2.15 0 1.18741.96259 2.15 2.15 2.15 1.18741 0 2.15-.96259 2.15-2.15 0-1.18741-.96259-2.15-2.15-2.15zm8.6 0c-1.18741 0-2.15.96259-2.15 2.15 0 1.18741.96259 2.15 2.15 2.15 1.18741 0 2.15-.96259 2.15-2.15 0-1.18741-.96259-2.15-2.15-2.15zm8.6 0c-1.18741 0-2.15.96259-2.15 2.15 0 1.18741.96259 2.15 2.15 2.15 1.18741 0 2.15-.96259 2.15-2.15 0-1.18741-.96259-2.15-2.15-2.15zm8.6 0c-1.18741 0-2.15.96259-2.15 2.15 0 1.18741.96259 2.15 2.15 2.15 1.18741 0 2.15-.96259 2.15-2.15 0-1.18741-.96259-2.15-2.15-2.15zm8.6 0c-1.18741 0-2.15.96259-2.15 2.15 0 1.18741.96259 2.15 2.15 2.15 1.18741 0 2.15-.96259 2.15-2.15 0-1.18741-.96259-2.15-2.15-2.15zm8.6 0c-1.18741 0-2.15.96259-2.15 2.15 0 1.18741.96259 2.15 2.15 2.15 1.18741 0 2.15-.96259 2.15-2.15 0-1.18741-.96259-2.15-2.15-2.15zm8.6 0c-1.18741 0-2.15.96259-2.15 2.15 0 1.18741.96259 2.15 2.15 2.15 1.18741 0 2.15-.96259 2.15-2.15 0-1.18741-.96259-2.15-2.15-2.15zm17.2 0c-1.18741 0-2.15.96259-2.15 2.15 0 1.18741.96259 2.15 2.15 2.15 1.18741 0 2.15-.96259 2.15-2.15 0-1.18741-.96259-2.15-2.15-2.15zm43 0c-1.18741 0-2.15.96259-2.15 2.15 0 1.18741.96259 2.15 2.15 2.15 1.18741 0 2.15-.96259 2.15-2.15 0-1.18741-.96259-2.15-2.15-2.15zm-43 8.6c-1.18741 0-2.15.96259-2.15 2.15 0 1.18741.96259 2.15 2.15 2.15 1.18741 0 2.15-.96259 2.15-2.15 0-1.18741-.96259-2.15-2.15-2.15zm43 0c-1.18741 0-2.15.96259-2.15 2.15 0 1.18741.96259 2.15 2.15 2.15 1.18741 0 2.15-.96259 2.15-2.15 0-1.18741-.96259-2.15-2.15-2.15zm-111.8 8.6c-1.18741 0-2.15.96259-2.15 2.15 0 1.18741.96259 2.15 2.15 2.15 1.18741 0 2.15-.96259 2.15-2.15 0-1.18741-.96259-2.15-2.15-2.15zm8.6 0c-1.18741 0-2.15.96259-2.15 2.15 0 1.18741.96259 2.15 2.15 2.15 1.18741 0 2.15-.96259 2.15-2.15 0-1.18741-.96259-2.15-2.15-2.15zm8.6 0c-1.18741 0-2.15.96259-2.15 2.15 0 1.18741.96259 2.15 2.15 2.15 1.18741 0 2.15-.96259 2.15-2.15 0-1.18741-.96259-2.15-2.15-2.15zm8.6 0c-1.18741 0-2.15.96259-2.15 2.15 0 1.18741.96259 2.15 2.15 2.15 1.18741 0 2.15-.96259 2.15-2.15 0-1.18741-.96259-2.15-2.15-2.15zm8.6 0c-1.18741 0-2.15.96259-2.15 2.15 0 1.18741.96259 2.15 2.15 2.15 1.18741 0 2.15-.96259 2.15-2.15 0-1.18741-.96259-2.15-2.15-2.15zm8.6 0c-1.18741 0-2.15.96259-2.15 2.15 0 1.18741.96259 2.15 2.15 2.15 1.18741 0 2.15-.96259 2.15-2.15 0-1.18741-.96259-2.15-2.15-2.15zm8.6 0c-1.18741 0-2.15.96259-2.15 2.15 0 1.18741.96259 2.15 2.15 2.15 1.18741 0 2.15-.96259 2.15-2.15 0-1.18741-.96259-2.15-2.15-2.15zm17.2 0c-1.18741 0-2.15.96259-2.15 2.15 0 1.18741.96259 2.15 2.15 2.15 1.18741 0 2.15-.96259 2.15-2.15 0-1.18741-.96259-2.15-2.15-2.15zm43 0c-1.18741 0-2.15.96259-2.15 2.15 0 1.18741.96259 2.15 2.15 2.15 1.18741 0 2.15-.96259 2.15-2.15 0-1.18741-.96259-2.15-2.15-2.15zm-111.8 8.6c-1.18741 0-2.15.96259-2.15 2.15 0 1.18741.96259 2.15 2.15 2.15 1.18741 0 2.15-.96259 2.15-2.15 0-1.18741-.96259-2.15-2.15-2.15zm51.6 0c-1.18741 0-2.15.96259-2.15 2.15 0 1.18741.96259 2.15 2.15 2.15 1.18741 0 2.15-.96259 2.15-2.15 0-1.18741-.96259-2.15-2.15-2.15zm17.2 0c-1.18741 0-2.15.96259-2.15 2.15 0 1.18741.96259 2.15 2.15 2.15 1.18741 0 2.15-.96259 2.15-2.15 0-1.18741-.96259-2.15-2.15-2.15zm43 0c-1.18741 0-2.15.96259-2.15 2.15 0 1.18741.96259 2.15 2.15 2.15 1.18741 0 2.15-.96259 2.15-2.15 0-1.18741-.96259-2.15-2.15-2.15zm-111.8 8.6c-1.18741 0-2.15.96259-2.15 2.15 0 1.18741.96259 2.15 2.15 2.15 1.18741 0 2.15-.96259 2.15-2.15 0-1.18741-.96259-2.15-2.15-2.15zm8.6 0c-1.18741 0-2.15.96259-2.15 2.15 0 1.18741.96259 2.15 2.15 2.15 1.18741 0 2.15-.96259 2.15-2.15 0-1.18741-.96259-2.15-2.15-2.15zm8.6 0c-1.18741 0-2.15.96259-2.15 2.15 0 1.18741.96259 2.15 2.15 2.15 1.18741 0 2.15-.96259 2.15-2.15 0-1.18741-.96259-2.15-2.15-2.15zm8.6 0c-1.18741 0-2.15.96259-2.15 2.15 0 1.18741.96259 2.15 2.15 2.15 1.18741 0 2.15-.96259 2.15-2.15 0-1.18741-.96259-2.15-2.15-2.15zm8.6 0c-1.18741 0-2.15.96259-2.15 2.15 0 1.18741.96259 2.15 2.15 2.15 1.18741 0 2.15-.96259 2.15-2.15 0-1.18741-.96259-2.15-2.15-2.15zm8.6 0c-1.18741 0-2.15.96259-2.15 2.15 0 1.18741.96259 2.15 2.15 2.15 1.18741 0 2.15-.96259 2.15-2.15 0-1.18741-.96259-2.15-2.15-2.15zm8.6 0c-1.18741 0-2.15.96259-2.15 2.15 0 1.18741.96259 2.15 2.15 2.15 1.18741 0 2.15-.96259 2.15-2.15 0-1.18741-.96259-2.15-2.15-2.15zm17.2 0c-1.18741 0-2.15.96259-2.15 2.15 0 1.18741.96259 2.15 2.15 2.15 1.18741 0 2.15-.96259 2.15-2.15 0-1.18741-.96259-2.15-2.15-2.15zm8.6 0c-1.18741 0-2.15.96259-2.15 2.15 0 1.18741.96259 2.15 2.15 2.15 1.18741 0 2.15-.96259 2.15-2.15 0-1.18741-.96259-2.15-2.15-2.15zm8.6 0c-1.18741 0-2.15.96259-2.15 2.15 0 1.18741.96259 2.15 2.15 2.15 1.18741 0 2.15-.96259 2.15-2.15 0-1.18741-.96259-2.15-2.15-2.15zm8.6 0c-1.18741 0-2.15.96259-2.15 2.15 0 1.18741.96259 2.15 2.15 2.15 1.18741 0 2.15-.96259 2.15-2.15 0-1.18741-.96259-2.15-2.15-2.15zm8.6 0c-1.18741 0-2.15.96259-2.15 2.15 0 1.18741.96259 2.15 2.15 2.15 1.18741 0 2.15-.96259 2.15-2.15 0-1.18741-.96259-2.15-2.15-2.15zm8.6 0c-1.18741 0-2.15.96259-2.15 2.15 0 1.18741.96259 2.15 2.15 2.15 1.18741 0 2.15-.96259 2.15-2.15 0-1.18741-.96259-2.15-2.15-2.15z"/>
  </g>
</svg>